<svg width="171" height="201" viewBox="0 0 171 201" fill="none" xmlns="http://www.w3.org/2000/svg">
<rect width="171" height="201" rx="19" fill="#D0D0D0"/>
<rect x="16" y="51" width="93" height="22" rx="11" fill="black"/>
<path d="M133.731 177.613C129.111 182.743 121.208 183.157 116.077 178.538L64.0571 131.699C58.9267 127.079 58.5125 119.176 63.1319 114.045V114.045C67.7513 108.915 75.655 108.501 80.7854 113.12L132.805 159.959C137.936 164.579 138.35 172.482 133.731 177.613V177.613Z" fill="black"/>
<path d="M137.465 46.5306C148.147 113.585 105.474 103.455 53.5 103.455C35.707 66.4639 129.999 102.145 115.798 72.0125C136.414 11.8284 31.116 67 53.5 23C105.474 23 137.465 24.9579 137.465 46.5306Z" fill="black"/>
</svg>
